<?xml version="1.0" encoding="UTF-8" standalone="no"?>
<!DOCTYPE svg PUBLIC "-//W3C//DTD SVG 1.1//EN"
 "http://www.w3.org/Graphics/SVG/1.1/DTD/svg11.dtd">
<!-- Generated by graphviz version 13.1.1 (20250719.2154)
 -->
<!-- Pages: 1 -->
<svg width="462pt" height="430pt"
 viewBox="0.00 0.00 462.00 430.00" xmlns="http://www.w3.org/2000/svg" xmlns:xlink="http://www.w3.org/1999/xlink">
<g id="graph0" class="graph" transform="scale(1 1) rotate(0) translate(4 426)">
<polygon fill="white" stroke="none" points="-4,4 -4,-426 458.05,-426 458.05,4 -4,4"/>
<!-- 0 -->
<g id="node1" class="node">
<title>0</title>
<polygon fill="#eee9e9" stroke="black" points="54,-42.5 0,-42.5 0,-6.5 54,-6.5 54,-42.5"/>
<text xml:space="preserve" text-anchor="middle" x="27" y="-19.45" font-family="Times,serif" font-size="14.00">0</text>
</g>
<!-- 1 -->
<g id="node2" class="node">
<title>1</title>
<polygon fill="#eee9e9" stroke="black" points="103,-49 71.95,-12.25 134.05,-12.25 103,-49"/>
<text xml:space="preserve" text-anchor="middle" x="103" y="-19.45" font-family="Times,serif" font-size="14.00">1</text>
</g>
<!-- 6 -->
<g id="node7" class="node">
<title>6</title>
<ellipse fill="lightskyblue" stroke="black" cx="144" cy="-103" rx="30.37" ry="18"/>
<text xml:space="preserve" text-anchor="middle" x="144" y="-97.95" font-family="Times,serif" font-size="14.00">XOR</text>
</g>
<!-- 1&#45;&gt;6 -->
<g id="edge2" class="edge">
<title>1&#45;&gt;6</title>
<path fill="none" stroke="black" d="M110.91,-40.25C116.27,-50.26 123.51,-63.77 129.85,-75.6"/>
<polygon fill="black" stroke="black" points="126.6,-76.94 134.41,-84.1 132.77,-73.63 126.6,-76.94"/>
</g>
<!-- 2 -->
<g id="node3" class="node">
<title>2</title>
<polygon fill="#eee9e9" stroke="black" points="183,-49 151.95,-12.25 214.05,-12.25 183,-49"/>
<text xml:space="preserve" text-anchor="middle" x="183" y="-19.45" font-family="Times,serif" font-size="14.00">2</text>
</g>
<!-- 2&#45;&gt;6 -->
<g id="edge1" class="edge">
<title>2&#45;&gt;6</title>
<path fill="none" stroke="black" d="M175.29,-40.61C170.26,-50.48 163.56,-63.64 157.64,-75.24"/>
<polygon fill="black" stroke="black" points="154.61,-73.48 153.19,-83.98 160.85,-76.66 154.61,-73.48"/>
</g>
<!-- 7 -->
<g id="node8" class="node">
<title>7</title>
<ellipse fill="lightskyblue" stroke="black" cx="223" cy="-103" rx="30.37" ry="18"/>
<text xml:space="preserve" text-anchor="middle" x="223" y="-97.95" font-family="Times,serif" font-size="14.00">XOR</text>
</g>
<!-- 2&#45;&gt;7 -->
<g id="edge4" class="edge">
<title>2&#45;&gt;7</title>
<path fill="none" stroke="black" d="M190.71,-40.25C195.89,-50.16 202.87,-63.5 209.01,-75.24"/>
<polygon fill="black" stroke="black" points="205.9,-76.85 213.64,-84.09 212.11,-73.61 205.9,-76.85"/>
</g>
<!-- 3 -->
<g id="node4" class="node">
<title>3</title>
<polygon fill="#eee9e9" stroke="black" points="263,-49 231.95,-12.25 294.05,-12.25 263,-49"/>
<text xml:space="preserve" text-anchor="middle" x="263" y="-19.45" font-family="Times,serif" font-size="14.00">3</text>
</g>
<!-- 3&#45;&gt;7 -->
<g id="edge3" class="edge">
<title>3&#45;&gt;7</title>
<path fill="none" stroke="black" d="M255.29,-40.25C250.11,-50.16 243.13,-63.5 236.99,-75.24"/>
<polygon fill="black" stroke="black" points="233.89,-73.61 232.36,-84.09 240.1,-76.85 233.89,-73.61"/>
</g>
<!-- 9 -->
<g id="node10" class="node">
<title>9</title>
<ellipse fill="lightskyblue" stroke="black" cx="302" cy="-103" rx="30.37" ry="18"/>
<text xml:space="preserve" text-anchor="middle" x="302" y="-97.95" font-family="Times,serif" font-size="14.00">XOR</text>
</g>
<!-- 3&#45;&gt;9 -->
<g id="edge8" class="edge">
<title>3&#45;&gt;9</title>
<path fill="none" stroke="black" d="M270.71,-40.61C275.74,-50.48 282.44,-63.64 288.36,-75.24"/>
<polygon fill="black" stroke="black" points="285.15,-76.66 292.81,-83.98 291.39,-73.48 285.15,-76.66"/>
</g>
<!-- 4 -->
<g id="node5" class="node">
<title>4</title>
<polygon fill="#eee9e9" stroke="black" points="343,-49 311.95,-12.25 374.05,-12.25 343,-49"/>
<text xml:space="preserve" text-anchor="middle" x="343" y="-19.45" font-family="Times,serif" font-size="14.00">4</text>
</g>
<!-- 4&#45;&gt;9 -->
<g id="edge7" class="edge">
<title>4&#45;&gt;9</title>
<path fill="none" stroke="black" d="M335.09,-40.25C329.73,-50.26 322.49,-63.77 316.15,-75.6"/>
<polygon fill="black" stroke="black" points="313.23,-73.63 311.59,-84.1 319.4,-76.94 313.23,-73.63"/>
</g>
<!-- 11 -->
<g id="node12" class="node">
<title>11</title>
<ellipse fill="lightskyblue" stroke="black" cx="381" cy="-103" rx="30.37" ry="18"/>
<text xml:space="preserve" text-anchor="middle" x="381" y="-97.95" font-family="Times,serif" font-size="14.00">XOR</text>
</g>
<!-- 4&#45;&gt;11 -->
<g id="edge12" class="edge">
<title>4&#45;&gt;11</title>
<path fill="none" stroke="black" d="M350.51,-40.61C355.41,-50.48 361.95,-63.64 367.71,-75.24"/>
<polygon fill="black" stroke="black" points="364.46,-76.57 372.04,-83.97 370.73,-73.46 364.46,-76.57"/>
</g>
<!-- 5 -->
<g id="node6" class="node">
<title>5</title>
<polygon fill="#eee9e9" stroke="black" points="423,-49 391.95,-12.25 454.05,-12.25 423,-49"/>
<text xml:space="preserve" text-anchor="middle" x="423" y="-19.45" font-family="Times,serif" font-size="14.00">5</text>
</g>
<!-- 5&#45;&gt;11 -->
<g id="edge11" class="edge">
<title>5&#45;&gt;11</title>
<path fill="none" stroke="black" d="M415.1,-39.89C409.59,-49.93 402.07,-63.63 395.49,-75.6"/>
<polygon fill="black" stroke="black" points="392.5,-73.77 390.76,-84.22 398.64,-77.14 392.5,-73.77"/>
</g>
<!-- 8 -->
<g id="node9" class="node">
<title>8</title>
<ellipse fill="lightcoral" stroke="black" cx="223" cy="-175" rx="30.88" ry="18"/>
<text xml:space="preserve" text-anchor="middle" x="223" y="-169.95" font-family="Times,serif" font-size="14.00">AND</text>
</g>
<!-- 6&#45;&gt;8 -->
<g id="edge5" class="edge">
<title>6&#45;&gt;8</title>
<path fill="none" stroke="black" d="M160.37,-118.5C171.28,-128.17 185.82,-141.06 198.15,-151.98"/>
<polygon fill="black" stroke="black" points="195.71,-154.5 205.52,-158.51 200.36,-149.26 195.71,-154.5"/>
</g>
<!-- 7&#45;&gt;8 -->
<g id="edge6" class="edge">
<title>7&#45;&gt;8</title>
<path fill="none" stroke="black" d="M223,-121.3C223,-128.59 223,-137.27 223,-145.46"/>
<polygon fill="black" stroke="black" points="219.5,-145.38 223,-155.38 226.5,-145.38 219.5,-145.38"/>
</g>
<!-- 10 -->
<g id="node11" class="node">
<title>10</title>
<ellipse fill="lightcoral" stroke="black" cx="302" cy="-247" rx="30.88" ry="18"/>
<text xml:space="preserve" text-anchor="middle" x="302" y="-241.95" font-family="Times,serif" font-size="14.00">AND</text>
</g>
<!-- 8&#45;&gt;10 -->
<g id="edge9" class="edge">
<title>8&#45;&gt;10</title>
<path fill="none" stroke="black" d="M239.37,-190.5C250.28,-200.17 264.82,-213.06 277.15,-223.98"/>
<polygon fill="black" stroke="black" points="274.71,-226.5 284.52,-230.51 279.36,-221.26 274.71,-226.5"/>
</g>
<!-- 9&#45;&gt;10 -->
<g id="edge10" class="edge">
<title>9&#45;&gt;10</title>
<path fill="none" stroke="black" d="M302,-121.41C302,-145.39 302,-188.86 302,-217.58"/>
<polygon fill="black" stroke="black" points="298.5,-217.38 302,-227.38 305.5,-217.38 298.5,-217.38"/>
</g>
<!-- 12 -->
<g id="node13" class="node">
<title>12</title>
<ellipse fill="lightcoral" stroke="black" cx="331" cy="-319" rx="30.88" ry="18"/>
<text xml:space="preserve" text-anchor="middle" x="331" y="-313.95" font-family="Times,serif" font-size="14.00">AND</text>
</g>
<!-- 10&#45;&gt;12 -->
<g id="edge13" class="edge">
<title>10&#45;&gt;12</title>
<path fill="none" stroke="black" d="M309.02,-264.95C312.23,-272.68 316.1,-282.04 319.7,-290.73"/>
<polygon fill="black" stroke="black" points="316.4,-291.91 323.47,-299.81 322.87,-289.23 316.4,-291.91"/>
</g>
<!-- 11&#45;&gt;12 -->
<g id="edge14" class="edge">
<title>11&#45;&gt;12</title>
<path fill="none" stroke="black" d="M376.99,-121.15C368.4,-157.93 348.12,-244.71 337.6,-289.76"/>
<polygon fill="black" stroke="black" points="334.24,-288.76 335.37,-299.29 341.05,-290.35 334.24,-288.76"/>
</g>
<!-- po0 -->
<g id="node14" class="node">
<title>po0</title>
<polygon fill="#eee9e9" stroke="black" points="331,-373 380.47,-409.75 281.53,-409.75 331,-373"/>
<text xml:space="preserve" text-anchor="middle" x="331" y="-392.45" font-family="Times,serif" font-size="14.00">po0</text>
</g>
<!-- 12&#45;&gt;po0 -->
<g id="edge15" class="edge">
<title>12&#45;&gt;po0</title>
<path fill="none" stroke="black" d="M331,-337.36C331,-344.43 331,-352.88 331,-361.14"/>
<polygon fill="black" stroke="black" points="327.5,-361.03 331,-371.03 334.5,-361.03 327.5,-361.03"/>
</g>
</g>
</svg>
